<?xml version="1.0" standalone="no"?>
<!DOCTYPE svg PUBLIC "-//W3C//DTD SVG 20010904//EN"
 "http://www.w3.org/TR/2001/REC-SVG-20010904/DTD/svg10.dtd">
<svg version="1.0" xmlns="http://www.w3.org/2000/svg"
 width="1200.000000pt" height="1200.000000pt" viewBox="0 0 1200.000000 1200.000000"
 preserveAspectRatio="xMidYMid meet">

<g transform="translate(0.000000,1200.000000) scale(0.100000,-0.100000)"
fill="#000000" stroke="none">
<path d="M1475 8605 c-494 -91 -876 -422 -1028 -890 -66 -204 -62 -98 -62
-1715 l0 -1465 22 -100 c58 -267 176 -488 358 -671 227 -228 508 -356 840
-384 159 -13 7290 -13 7470 0 545 40 992 385 1164 898 69 206 66 130 66 1722
0 1592 3 1516 -66 1722 -145 431 -482 744 -934 866 l-100 27 -3830 2 c-3104 1
-3843 -1 -3900 -12z m7692 -760 c181 -61 310 -197 370 -392 17 -55 18 -137 18
-1453 0 -1326 -1 -1398 -18 -1455 -61 -197 -197 -334 -397 -402 -53 -17 -188
-18 -3735 -21 -2356 -2 -3709 1 -3761 7 -108 13 -184 41 -267 97 -84 58 -138
119 -182 209 -67 135 -65 67 -65 1565 0 1481 -2 1427 58 1554 69 146 201 256
362 302 36 10 801 12 3793 13 l3748 1 76 -25z"/>
<path d="M1943 7291 c-102 -35 -179 -106 -225 -207 l-23 -49 0 -1035 0 -1035
27 -57 c37 -79 98 -142 177 -181 l66 -32 1600 0 1600 0 57 29 c64 32 129 92
163 151 56 94 55 78 55 1125 0 841 -2 974 -16 1025 -29 113 -97 198 -202 251
l-57 29 -1585 2 c-1503 2 -1588 2 -1637 -16z"/>
<path d="M10880 6001 c0 -829 3 -1121 11 -1121 24 0 204 92 263 134 76 55 200
182 253 261 142 211 214 455 214 725 0 270 -72 514 -214 725 -53 79 -177 206
-253 261 -63 45 -203 118 -248 130 l-26 6 0 -1121z"/>
</g>
</svg>
